Coordinates
version=1
nRows=9
nColumns=40
inDegrees=yes

Units are S.I. units (second, meters, Newtons, ...)
If the header above contains a line with 'inDegrees', this indicates whether rotational values are in degrees (yes) or radians (no).

endheader
time	pelvis_tilt	pelvis_list	pelvis_rotation	pelvis_tx	pelvis_ty	pelvis_tz	hip_flexion_r	hip_adduction_r	hip_rotation_r	knee_angle_r	knee_angle_r_beta	ankle_angle_r	subtalar_angle_r	mtp_angle_r	hip_flexion_l	hip_adduction_l	hip_rotation_l	knee_angle_l	knee_angle_l_beta	ankle_angle_l	subtalar_angle_l	mtp_angle_l	lumbar_extension	lumbar_bending	lumbar_rotation	arm_flex_r	arm_add_r	arm_rot_r	elbow_flex_r	pro_sup_r	wrist_flex_r	wrist_dev_r	arm_flex_l	arm_add_l	arm_rot_l	elbow_flex_l	pro_sup_l	wrist_flex_l	wrist_dev_l
     17.51500000000000056843	     27.27945371050291711867	    -12.14099173252336605344	    178.16674247842124145791	      0.36478576786072081095	      0.70629201312640155219	     -0.59476392083700502234	     89.96727823572462057200	     -9.96234741190222017337	     11.67118148569197799702	     80.72890450782652749240	      1.40898518518966531232	     21.96708900034901290610	      0.00000000000000000000	      0.00000000000000000000	     82.03848386344101584200	     -4.47200843461647767896	    -11.07379512841740876183	     77.62824235718149168406	      1.35486842166894105866	     25.22259416870204873362	      0.00000000000000000000	      0.00000000000000000000	    -47.51004334062185563425	     -8.64055844646847504009	     -8.51982496394188615341	     59.98872368110391306573	    -12.41447567253010397792	     45.39412553491137458650	      9.36913285448838628611	      7.75582049259499850535	      0.00000000000000000000	      0.00000000000000000000	     68.06779732459705201109	    -16.93091973633365654450	     41.85237344790775892989	     13.91662222755210898129	     86.06984554958944499958	      0.00000000000000000000	      0.00000000000000000000
     17.51999999999999957367	     27.26534290333924204219	    -12.20010727189047905483	    178.18762551091339219056	      0.36451202937508137003	      0.70743368445571785941	     -0.59464213138471144759	     89.82105097882629252126	    -10.06101141497124729085	     11.66925443744120549638	     80.52960349284747110232	      1.40550672627571437978	     21.92904523248839154803	      0.00000000000000000000	      0.00000000000000000000	     81.85261069286698898395	     -4.39924951972763889074	    -11.16267839434884656669	     77.39067801408813807029	      1.35072214169662463412	     25.17497009188054235551	      0.00000000000000000000	      0.00000000000000000000	    -47.63204970047618047602	     -8.66092021435109060690	     -8.59328359025459853626	     60.08156103907744238768	    -12.38522274463509020848	     45.33061178163818993880	      9.14152508486131587517	      9.33807774473467055998	      0.00000000000000000000	      0.00000000000000000000	     68.15410670940660509132	    -17.07346251869782705057	     42.57054665382869274026	     14.10873557521079213473	     85.81221744696959774501	      0.00000000000000000000	      0.00000000000000000000
     17.52499999999999857891	     27.43403839154412082735	    -12.09914361608933042191	    178.16990479436151417758	      0.36447823693011183188	      0.70811753583910619358	     -0.59460161333763850156	     89.81659219860455323214	     -9.98393502882104577623	     11.57297479167213793971	     80.30252373508416496861	      1.40154343683811344334	     21.85817842095845264794	      0.00000000000000000000	      0.00000000000000000000	     81.93082700044938349038	     -4.43109731640340331893	    -11.03696111885605191105	     77.21611283530425851040	      1.34767540456751344635	     25.10475017943033293477	      0.00000000000000000000	      0.00000000000000000000	    -47.50563470002219901289	     -8.58602326884399325024	     -8.47464085102340192179	     60.08334908052042067084	    -12.43676147083868777088	     45.58300875577310762310	      9.35710020533931086106	      7.74144586458406980256	      0.00000000000000000000	      0.00000000000000000000	     68.16232410496029103797	    -16.82272435443733016314	     41.58315585885536336264	     13.82457328265584628468	     86.03226793274818362534	      0.00000000000000000000	      0.00000000000000000000
     17.53000000000000113687	     27.61480724992049573530	    -11.93117640239093191212	    178.13155678539712312158	      0.36452803442899461839	      0.70882845547661432750	     -0.59471668238971020504	     89.81400495618927948271	     -9.89562282764142686631	     11.35352453365037206368	     80.06401628797527791903	      1.39738069659553709734	     21.66406221634539264187	      0.00000000000000000000	      0.00000000000000000000	     82.05390549690159218699	     -4.57336675395050384907	    -10.93035505433426379795	     77.07956905409986347877	      1.34529226601237383854	     24.89182544152604492638	      0.00000000000000000000	      0.00000000000000000000	    -47.36575080730829512277	     -8.50671198937238770554	     -8.24709863140838628226	     60.22157571192045111275	    -12.28199139501186820667	     44.96835337824455081090	      8.52362191451997830427	     11.59011846824364333486	      0.00000000000000000000	      0.00000000000000000000	     68.15428742067639689139	    -16.51747168478737393116	     41.62271387887345497347	     13.56910478144917142629	     81.94898649547177171826	      0.00000000000000000000	      0.00000000000000000000
     17.53500000000000014211	     27.68876733569928560996	    -11.97099970032929405761	    178.04370579190083390131	      0.36435953437101809005	      0.70971971321605797911	     -0.59480893271060464311	     89.77140102434537993759	     -9.83005175822707855104	     11.34887014078252853722	     79.85915146160085953397	      1.39380513085377710780	     21.52280274869434606444	      0.00000000000000000000	      0.00000000000000000000	     81.97526208890462839918	     -4.66809171793853128207	    -11.04278050765078944551	     76.89128545812916115665	      1.34200609733519038436	     24.81062030507980509242	      0.00000000000000000000	      0.00000000000000000000	    -47.37346445917115289603	     -8.59897198613842839165	     -8.18918567329557944845	     60.33925246681726406450	    -12.24668870018184385629	     44.69466506178881104461	      8.15276438722456830988	     14.35895738051192616069	      0.00000000000000000000	      0.00000000000000000000	     68.14807541530062451329	    -16.42024902964372401470	     41.93243139111458361867	     13.59833360899249043996	     79.08320537789761317526	      0.00000000000000000000	      0.00000000000000000000
     17.53999999999999914735	     27.65937312742956777356	    -12.01330399414811900272	    178.09300733354407952902	      0.36398672971028422918	      0.71077633521007710371	     -0.59458695602150202220	     89.58967001221864734362	     -9.92670724047348329577	     11.37972478594383041184	     79.67538149784600420844	      1.39059773991998403275	     21.63588993621929645883	      0.00000000000000000000	      0.00000000000000000000	     81.78436282027703896347	     -4.52329579710253604219	    -11.06378473792672245679	     76.65918394935984281346	      1.33795516180831941533	     24.86732528557666555002	      0.00000000000000000000	      0.00000000000000000000	    -47.51060143939894686582	     -8.57311664725542321719	     -8.28544166590995700972	     60.17967830446982446801	    -12.56936768848837004953	     45.70403595181749523135	      9.12268380620599472763	     10.14726725286710262708	      0.00000000000000000000	      0.00000000000000000000	     68.34620297965356883196	    -16.82692452538395144757	     42.48450882076858192704	     13.90047404671019393163	     86.16297864254481453372	      0.00000000000000000000	      0.00000000000000000000
     17.54500000000000170530	     27.71915356198588753500	    -12.25346299698764163111	    178.31012722420140903523	      0.36364771702761100602	      0.71183214944807804425	     -0.59384053047637974654	     89.59804734550306193341	    -10.26104703813474650076	     11.59385529322587515821	     79.52116092281539749820	      1.38790608311138119468	     21.59742724266198621308	      0.00000000000000000000	      0.00000000000000000000	     81.62324908256859146150	     -4.11999668486346504181	    -11.23351040632559083576	     76.31288146956566720291	      1.33191104332808984978	     24.86390562628822920033	      0.00000000000000000000	      0.00000000000000000000	    -47.58796727129247017274	     -8.57027148843514119392	     -8.67299494460892717029	     60.26372677934878652195	    -12.45075568195979798247	     45.39092388711718939476	      8.92700882982968302315	     11.38070757972819357917	      0.00000000000000000000	      0.00000000000000000000	     68.31828549372799841422	    -16.92789665037932778091	     42.52206762881059631809	     14.07031327422876287869	     85.39625204718576867435	      0.00000000000000000000	      0.00000000000000000000
     17.55000000000000071054	     27.81194412561859152788	    -12.06907572942609085942	    178.11503440327578573488	      0.36350463702323193571	      0.71260142053443220611	     -0.59436102288361658541	     89.48316936443681868241	     -9.98283014781984867625	     11.39835131727033612492	     79.29800974992110695894	      1.38401136041468864057	     21.52245657189591199199	      0.00000000000000000000	      0.00000000000000000000	     81.63717618602402126271	     -4.45529509152999914079	    -11.17216092592313891885	     76.23181335822788184942	      1.33049613786687204176	     24.73571044985060396471	      0.00000000000000000000	      0.00000000000000000000	    -47.53912530023685434344	     -8.58646912634340786497	     -8.37066721083084708255	     60.27242201146087552388	    -12.50457740547281737520	     45.67765679354437224902	      9.35130996547259130125	      7.63552072909406298606	      0.00000000000000000000	      0.00000000000000000000	     68.40833240606578158349	    -16.66751556041663562269	     41.70407559719997436787	     13.70410406025686711473	     86.01889944813629540477	      0.00000000000000000000	      0.00000000000000000000
     17.55499999999999971578	     27.90729508050623408622	    -12.11228841589988114436	    178.06952825942249774016	      0.36327485803363734895	      0.71341303210397677415	     -0.59437333994606900145	     89.45458591524729285993	     -9.93720179593917052330	     11.42847691916401764445	     79.10523115844320329870	      1.38064673926604220000	     21.45488529780652697809	      0.00000000000000000000	      0.00000000000000000000	     81.58981629386668998904	     -4.48459192517426785685	    -11.24401767258522788495	     76.04298755047280167219	      1.32720050580880810642	     24.68642707879349629252	      0.00000000000000000000	      0.00000000000000000000	    -47.52246863288632283684	     -8.65104867817935740959	     -8.35040861720345617414	     60.28502268321091861480	    -12.52899248274988686092	     45.66121623060769252334	      9.32103085926664043370	      8.02310268545783777938	      0.00000000000000000000	      0.00000000000000000000	     68.45535876760891369486	    -16.63391313853546549240	     41.75079424660306415262	     13.67646580867244132662	     86.05038077557775011428	      0.00000000000000000000	      0.00000000000000000000
